<svg id="Capa_1" data-name="Capa 1" xmlns="http://www.w3.org/2000/svg" viewBox="0 0 1736 459"><defs><style>.cls-1{fill:#6d6d6c;}.cls-1,.cls-2{fill-rule:evenodd;}.cls-2{fill:#f3a651;}</style></defs><path class="cls-1" d="M27.31,168c-17-22.45-13.93-56.49,6.68-75C49.9,78.66,69.25,77.14,89.24,77.14c17,0,50.24,8,65.08,18l-13.79,43.47c-19.1-13.33-47.65-18.73-59-15.85-8.19,2.07-16.59,11.85-5,22,11.07,9.68,54.57,9.75,73.14,34.32,10.82,14.31,11.83,38.9,4.7,55.37-23.5,54.24-110.95,39.36-148.55,14.4l13.67-47.31c22.88,21.59,56.66,24.6,67.51,23.86s20.6-11,13.06-22.45S45.43,192,27.31,168Zm353.58,15v88h57.16V237.82h0V156.35a19.66,19.66,0,0,1,4.89-13.13,15.81,15.81,0,0,1,11.78-5.46h0a15.82,15.82,0,0,1,11.77,5.46,19.73,19.73,0,0,1,4.89,13.13V271H522.8V156.35a19.68,19.68,0,0,1,4.89-13.13,15.81,15.81,0,0,1,11.77-5.46h0a15.81,15.81,0,0,1,11.77,5.46,19.69,19.69,0,0,1,4.9,13.13V271h57.15V205.92h0V162.47q0-19.25-3.79-33.89C601.43,97.39,576.28,78,547.11,78c-17.18,0-37.73,11.07-50,24.09-12.3-13-32.85-24.09-50-24.09-29.18,0-54.32,19.39-62.39,50.57-2.53,9.75-3.79,21.07-3.79,33.89v20.59ZM269.94,76.15c51.38,0,93.05,44.07,93.05,98.4a103.29,103.29,0,0,1-.93,13.83H233.6c0,.87-.09,1.75-.09,2.64,0,22.44,16.31,40.65,36.43,40.65,15.41,0,28.57-10.69,33.89-25.76h54.32c-12.39,39-47.2,67-88.21,67-51.38,0-93.05-44.07-93.05-98.4s41.67-98.4,93.05-98.4Zm-36.17,77.17h72.34c-2.11-20.2-17.49-35.88-36.17-35.88s-34.06,15.68-36.17,35.88Zm449.51,21.23c1,48.51,52.33,55.8,84.1,28.79h0v54.92c-65.75,33.29-136,0-136.16-83.71.17-83.69,70.41-117,136.16-83.71v54.93h0c-31.78-27-83.1-19.74-84.1,28.78Zm195.08-37.32c19.49,0,35.29,16.71,35.29,37.32s-15.8,37.33-35.29,37.33-35.29-16.71-35.29-37.33,15.8-37.32,35.29-37.32Zm0-61.07c-51.37,0-93,44.06-93,98.39S827,273,878.36,273s93-44.06,93-98.4S929.74,76.16,878.36,76.16Z"/><path class="cls-2" d="M1090.51,76.47c34.85,0,65.16,20.6,80.63,50.92l-26.71,15.44c-10.3-20.34-30.59-34.18-53.92-34.18-33.77,0-61.15,29-61.15,64.68S1056.74,238,1090.51,238c23.33,0,43.62-13.84,53.92-34.17l26.71,15.44c-15.47,30.3-45.78,50.92-80.63,50.92-50.58,0-91.59-43.38-91.59-96.86s41-96.86,91.59-96.86Zm87.36,193.72h27.82l11.19-35.12h90.89L1319,270.19h27.83L1285.85,78.82h-47l-60.93,191.38Zm88.44-165.33,32.89,103.29h-73.75l32.89-103.29Zm104.23-26h75.21c52.62,0,95.68,43.05,95.68,95.68h0c0,52.63-43.06,95.69-95.68,95.69h-75.21V78.82Zm26.92,26.92V243.27H1449c36,0,65.54-31,65.54-68.77h0c0-37.82-29.5-68.76-65.54-68.76Z"/><path class="cls-2" d="M1618.22,57.72V5.64h-5.48V57.72h-20.65V77.87h-53.38v5.35h53.38v20.15h20.65v52.09h5.48V103.37h20.65v-14a82.13,82.13,0,0,1,30.42,11.26c16.57,10.13,31.19,26.68,38.76,49.8,7.75,23.67,8.17,54.3-4,92.11-17,52.87-58.41,119.21-138.15,199.58l11.87,11.27c81.76-82.41,124.41-151,142.11-206,13.28-41.27,12.64-75.2,3.93-101.81-8.89-27.17-26.16-46.68-45.76-58.65q-3.22-2-6.51-3.65h20.72V77.88h-33a93.1,93.1,0,0,0-20.33-4.82V57.72Zm-19.06,6.91h13.58v7.6H1607v5.64h-7.79V64.63Zm19.06,0h13.57V77.87H1624V72.23h-5.79v-7.6Zm13.57,18.59V96.46h-13.57V88.87H1624V83.22Zm-19,13.24h-13.58V83.22H1607v5.65h5.79Z"/><path class="cls-1" d="M7,407.65a27.52,27.52,0,0,0,9.77,5.08,37.64,37.64,0,0,0,11.3,1.93q17.16,0,17.17-12.47a11.32,11.32,0,0,0-1.79-6.32,16.59,16.59,0,0,0-4.69-4.64q-2.88-1.92-12-6.63-11-5.66-15.32-10.46a17.3,17.3,0,0,1-4.3-12,17.74,17.74,0,0,1,7.83-15.22c5.21-3.74,11.66-5.64,19.32-5.64s13.34.94,16.68,2.8v10c-4.56-3.15-10.49-4.75-17.79-4.75-5,0-9.07,1.06-12.23,3.21a10.18,10.18,0,0,0-4.73,8.89,11.07,11.07,0,0,0,3.35,8.35c2.22,2.15,6.86,4.94,13.86,8.38,8.22,4.08,13.73,7.95,16.59,11.57a18.88,18.88,0,0,1,4.27,11.85q0,10.21-7.37,15.63T26.46,422.6a52.1,52.1,0,0,1-10.35-1.3c-4.16-.86-7.19-1.93-9.13-3.22V407.65Zm51.46-13.74q0-14,7.6-22.07t20.83-8q12.31,0,19.4,7.73t7.08,21.51q0,13.36-7.65,21.45t-20.16,8.1c-8.16,0-14.71-2.61-19.68-7.89s-7.42-12.21-7.42-20.8Zm8.61-.39q0,10,5.2,15.92c3.49,4,8.1,6,13.89,6,6,0,10.56-1.93,13.76-5.75s4.78-9.29,4.78-16.34-1.6-12.59-4.81-16.5S92.09,371,86.14,371s-10.46,2-13.91,6-5.18,9.55-5.18,16.52Zm54.17,27.76V338.13h8.45v83.15Zm65.19,0H177.9v-8.87h-.22c-3.7,6.81-9.47,10.19-17.32,10.19q-20.09,0-20.09-23.93V365.08h8.38v32.2q0,18.12,13.8,18.13a14.09,14.09,0,0,0,11.09-5c2.9-3.33,4.36-7.66,4.36-13V365.08h8.51v56.2Zm49.73-2.63a29,29,0,0,1-15.23,4c-7.85,0-14.24-2.54-19.21-7.69s-7.42-11.93-7.42-20.43q0-13.94,7.88-22.31t21.1-8.36a29.63,29.63,0,0,1,12.94,2.71v8.87A23,23,0,0,0,222.77,371a18.39,18.39,0,0,0-14.24,6.22q-5.64,6.24-5.64,16.55,0,9.86,5.15,15.75t14.14,5.92a22.67,22.67,0,0,0,14-4.93v8.17ZM242,344.87a5.64,5.64,0,0,1,1.61-4,5.29,5.29,0,0,1,3.9-1.63,5.41,5.41,0,0,1,4,1.66,5.53,5.53,0,0,1,1.64,4,5.37,5.37,0,0,1-1.64,4,5.52,5.52,0,0,1-4,1.61,5.41,5.41,0,0,1-3.9-1.58,5.48,5.48,0,0,1-1.61-4Zm1.19,76.41v-56.2h8.45v56.2Zm16.43-27.37q0-14,7.6-22.07t20.83-8q12.31,0,19.4,7.73t7.08,21.51q0,13.36-7.65,21.45t-20.17,8.1c-8.15,0-14.7-2.61-19.67-7.89s-7.42-12.21-7.42-20.8Zm8.61-.39q0,10,5.2,15.92t13.89,6c6,0,10.56-1.93,13.76-5.75s4.78-9.29,4.78-16.34-1.6-12.59-4.82-16.5S293.29,371,287.34,371s-10.46,2-13.91,6-5.18,9.55-5.18,16.52Zm100.3,27.76h-8.5V389.2q0-18.24-13.3-18.23a14.4,14.4,0,0,0-11.37,5.16c-3,3.42-4.51,7.82-4.51,13.12v32h-8.51v-56.2h8.51v9.41h.2q6.31-10.67,18.45-10.68c6.17,0,10.87,2,14.14,5.93s4.89,9.7,4.89,17.21v34.33Zm55.25-26H384q.27,9.77,5.22,14.9t13.28,5.16A27.29,27.29,0,0,0,420,409v8.12c-5,3.68-11.53,5.49-19.51,5.49s-14.1-2.58-18.57-7.76-6.72-12.36-6.72-21.52q0-12.78,7.37-21.15a23.42,23.42,0,0,1,18.29-8.36q10.92,0,16.92,7.14t6,19.74v4.59ZM415,387.8c0-5.23-1.26-9.34-3.78-12.29s-6-4.44-10.51-4.44a15,15,0,0,0-10.95,4.56,21,21,0,0,0-5.73,12.17Zm12.36,22a26.63,26.63,0,0,0,16.18,5.45c8,0,12-2.7,12-8.08a7.29,7.29,0,0,0-2.61-5.74q-2.64-2.27-10.31-5.16c-5.94-2.35-9.94-4.75-12-7.16a14.45,14.45,0,0,1,3.07-20.85,25.08,25.08,0,0,1,15.13-4.49,32.18,32.18,0,0,1,12.94,2.49v8.84a25.57,25.57,0,0,0-14.27-4.07c-3.49,0-6.24.77-8.23,2.33a7.07,7.07,0,0,0-3,5.8,7.24,7.24,0,0,0,2.21,5.72c1.5,1.33,4.71,3,9.66,4.91q10.08,3.93,13.1,7.65a14.51,14.51,0,0,1-3.12,20.77c-4.12,2.91-9.4,4.35-15.8,4.35a30.39,30.39,0,0,1-14.91-3.4v-9.36Zm110.5-44.76-26,65.51q-6.84,17.16-19.09,17.15a24.09,24.09,0,0,1-5.55-.63v-7.77a16.28,16.28,0,0,0,5.19.93q6.84,0,10.25-8.24l4.6-10.87-21.92-56.08h9.42l15.5,43.84c.1.3.5,1.63,1.18,4h.26l1.07-3.9,16.3-44Zm79.71,52.83q-8.72,4.69-21.65,4.69-16.65,0-26.73-10.91t-10.12-28.26q0-18.3,11.17-30.23t28.84-11.92c7.44,0,13.61,1.11,18.49,3.27v9.31A37.71,37.71,0,0,0,599,349.21q-14.07,0-22.41,9.46t-8.34,24.27q0,14.16,7.87,23T597,414.76q11.88,0,20.59-5.25v8.4Zm9.63-48.81a34.25,34.25,0,0,1,18.93-5.29q19.58,0,19.58,20.73v36.74h-8.5v-8.82h-.33q-5.83,10.16-17.27,10.14c-5.49,0-9.86-1.45-13.07-4.39s-4.85-6.87-4.85-11.81q0-15.64,18.51-18.23l17-2.44q0-14.66-11.66-14.66a27,27,0,0,0-18.29,7v-9Zm16.21,25.5q-6.57.86-9.73,3.22c-2.12,1.56-3.16,4.22-3.16,8a8.74,8.74,0,0,0,3,6.91,11.78,11.78,0,0,0,7.94,2.61,14.62,14.62,0,0,0,11.25-4.81,17.14,17.14,0,0,0,4.43-12.08v-5.68l-13.74,1.83Zm41.22,18.45v34.11h-8.5V365.08h8.5v10h.21q6.71-11.24,19.47-11.23,10.7,0,16.9,7.51t6.21,20.23q0,14.24-7,22.65t-18.69,8.4q-10.95,0-16.9-9.55Zm0-14.55a16.79,16.79,0,0,0,4.68,12A16.39,16.39,0,0,0,714.06,409c3.14-4.25,4.73-10.17,4.73-17.76q0-9.34-4.48-14.84A14.54,14.54,0,0,0,702.42,371a16.44,16.44,0,0,0-12.74,5.5,19.89,19.89,0,0,0-5,13.92v8.11Zm50.38-29.4A34.27,34.27,0,0,1,754,363.81q19.56,0,19.58,20.73v36.74h-8.51v-8.82h-.32q-5.84,10.16-17.27,10.14c-5.49,0-9.86-1.45-13.07-4.39s-4.85-6.87-4.85-11.81q0-15.64,18.5-18.23l17-2.44q0-14.66-11.67-14.66a27,27,0,0,0-18.28,7v-9Zm16.2,25.5c-4.37.57-7.62,1.64-9.72,3.22s-3.16,4.22-3.16,8a8.74,8.74,0,0,0,3,6.91,11.78,11.78,0,0,0,7.94,2.61,14.58,14.58,0,0,0,11.24-4.81A17.11,17.11,0,0,0,765,398.45v-5.68l-13.75,1.83Zm70.8,24a29.07,29.07,0,0,1-15.24,4c-7.85,0-14.23-2.54-19.2-7.69s-7.42-11.93-7.42-20.43q0-13.94,7.88-22.31t21.1-8.36a29.58,29.58,0,0,1,12.93,2.71v8.87A23,23,0,0,0,808.67,371a18.37,18.37,0,0,0-14.23,6.22q-5.64,6.24-5.64,16.55,0,9.86,5.15,15.75t14.14,5.92a22.69,22.69,0,0,0,14-4.93v8.17Zm5.88-73.78a5.6,5.6,0,0,1,1.61-4,5.29,5.29,0,0,1,3.9-1.63,5.39,5.39,0,0,1,4,1.66,5.5,5.5,0,0,1,1.65,4,5.34,5.34,0,0,1-1.65,4,5.5,5.5,0,0,1-4,1.61,5.45,5.45,0,0,1-5.51-5.62Zm1.19,76.41v-56.2h8.44v56.2Zm45.77-.54a16.8,16.8,0,0,1-8.18,1.76c-9.65,0-14.49-5.41-14.49-16.3V372.41h-9.73v-7.33h9.73V351.29l8.45-2.71v16.5h14.22v7.33H860.67v32.25c0,4,.65,6.71,2,8.28s3.47,2.35,6.43,2.35a9.32,9.32,0,0,0,5.82-1.87v7.32Zm6.85-51.64a34.18,34.18,0,0,1,18.91-5.29q19.58,0,19.59,20.73v36.74h-8.5v-8.82h-.33q-5.85,10.16-17.26,10.14c-5.5,0-9.86-1.45-13.08-4.39s-4.85-6.87-4.85-11.81q0-15.64,18.51-18.23l16.95-2.44q0-14.66-11.66-14.66a27,27,0,0,0-18.28,7v-9Zm16.2,25.5q-6.57.86-9.73,3.22c-2.11,1.56-3.15,4.22-3.15,8a8.73,8.73,0,0,0,3,6.91,11.79,11.79,0,0,0,8,2.61,14.57,14.57,0,0,0,11.23-4.81,17.06,17.06,0,0,0,4.44-12.08v-5.68l-13.74,1.83Zm70.79,24a29,29,0,0,1-15.24,4c-7.84,0-14.23-2.54-19.19-7.69s-7.43-11.93-7.43-20.43q0-13.94,7.88-22.31t21.1-8.36a29.66,29.66,0,0,1,12.94,2.71v8.87A23,23,0,0,0,955.36,371a18.35,18.35,0,0,0-14.23,6.22q-5.65,6.24-5.65,16.55,0,9.86,5.14,15.75t14.16,5.92a22.66,22.66,0,0,0,14-4.93v8.17Zm5.89-73.78a5.59,5.59,0,0,1,1.6-4,5.29,5.29,0,0,1,3.9-1.63,5.41,5.41,0,0,1,4,1.66,5.53,5.53,0,0,1,1.64,4,5.37,5.37,0,0,1-1.64,4,5.52,5.52,0,0,1-4,1.61,5.43,5.43,0,0,1-5.5-5.62Zm1.18,76.41v-56.2h8.44v56.2Zm16.43-27.37q0-14,7.6-22.07t20.83-8q12.31,0,19.4,7.73t7.08,21.51q0,13.36-7.65,21.45t-20.16,8.1c-8.17,0-14.71-2.61-19.67-7.89s-7.43-12.21-7.43-20.8Zm8.61-.39q0,10,5.2,15.92t13.89,6c6,0,10.57-1.93,13.76-5.75s4.78-9.29,4.78-16.34-1.61-12.59-4.82-16.5-7.77-5.85-13.72-5.85-10.46,2-13.91,6-5.18,9.55-5.18,16.52Zm32.23-55.06-14.24,17.76h-6.57l12.14-17.76Zm68.07,82.82h-8.5V389.2q0-18.24-13.3-18.23a14.4,14.4,0,0,0-11.37,5.16c-3,3.42-4.51,7.82-4.51,13.12v32H1055v-56.2h8.51v9.41h.2q6.31-10.67,18.45-10.68,9.26,0,14.14,5.93t4.89,17.21v34.33Zm90.32-3.37q-8.7,4.69-21.64,4.69-16.63,0-26.73-10.91T1133,383.43q0-18.3,11.18-30.23T1173,341.28c7.44,0,13.61,1.11,18.48,3.27v9.31a37.65,37.65,0,0,0-18.65-4.65q-14.07,0-22.41,9.46t-8.33,24.27q0,14.16,7.86,23c5.23,5.88,12.23,8.83,21,8.83q11.86,0,20.58-5.25v8.4Zm69.85,3.37h-9.56l-8.56-22.36h-33.75l-8,22.36h-9.64l30.28-78.71h8.75l30.43,78.71ZM1240.24,391l-12.57-34a25.8,25.8,0,0,1-1.16-5.19h-.27A21.61,21.61,0,0,1,1225,357l-12.47,34Zm26.15,30.26V342.57h21.33q41.51,0,41.5,38.39,0,18.3-11.88,29.3t-30.57,11Zm8.61-70.74v62.83h12q15.77,0,24.5-8.47t8.72-23.72q0-30.62-32.67-30.64Zm97.06-8-32.38,78.66h-7.91l32.2-78.66Zm2.88,78.66V342.57h22c6.54,0,11.79,1.66,15.81,4.95a16.06,16.06,0,0,1,6,13.08,19.69,19.69,0,0,1-3.55,11.57,19,19,0,0,1-10,7.13v.22a19.42,19.42,0,0,1,12.74,6q4.77,5.16,4.76,13.18a20.52,20.52,0,0,1-7.23,16.31q-7.21,6.25-18.11,6.25H1383v0Zm8.62-70.57v25.81h9.56q7.92,0,12.24-3.78c2.88-2.5,4.35-6,4.35-10.38q0-11.64-15.24-11.65Zm0,33.77v28.82h12.78c5.41,0,9.65-1.3,12.71-3.93s4.59-6.19,4.59-10.72q0-14.16-19.38-14.17Zm65-34.28h-7.81v63.53h7.81v7.6h-24.22v-7.6h7.8V350.15h-7.8v-7.58h24.22v7.58ZM1526,421.28V368.13c0-4.11.27-9.16.79-15.18h-.27a43.44,43.44,0,0,1-2.29,7.43l-27.44,60.9h-3.88l-27.38-60.48a40.12,40.12,0,0,1-2.27-7.85H1463c.27,1.95.42,7,.42,15v53.32h-8.39V342.57h11.29L1490.93,398a76.39,76.39,0,0,1,3.69,9.29h.32q.8-2.22,3.85-9.58L1524,342.57h10.64v78.71Z"/></svg>